<svg xmlns="http://www.w3.org/2000/svg" xmlns:xlink="http://www.w3.org/1999/xlink" width="1080" zoomAndPan="magnify" viewBox="0 0 810 809.999993" height="1080" preserveAspectRatio="xMidYMid meet" version="1.0"><defs><g/></defs><g fill="#6a4b2f" fill-opacity="1"><g transform="translate(143.130642, 760.594659)"><g><path d="M 560.328125 -219.9375 C 556.128906 -208.769531 551.9375 -195.851562 547.75 -181.1875 C 543.5625 -166.519531 539.023438 -150.8125 534.140625 -134.0625 C 530.648438 -120.789062 526.109375 -101.757812 520.515625 -76.96875 C 514.929688 -52.1875 510.046875 -26.53125 505.859375 0 C 470.253906 -1.394531 430.109375 -2.265625 385.421875 -2.609375 C 340.734375 -2.960938 300.929688 -3.140625 266.015625 -3.140625 C 250.660156 -3.140625 230.9375 -3.140625 206.84375 -3.140625 C 182.757812 -3.140625 156.75 -2.960938 128.8125 -2.609375 C 100.882812 -2.265625 72.609375 -1.914062 43.984375 -1.5625 C 15.359375 -1.21875 -11.519531 -0.695312 -36.65625 0 L -31.421875 -20.953125 C -7.679688 -22.347656 10.816406 -25.140625 24.078125 -29.328125 C 37.347656 -33.515625 47.648438 -41.890625 54.984375 -54.453125 C 62.316406 -67.023438 69.472656 -85.878906 76.453125 -111.015625 L 215.75 -630.484375 C 222.726562 -656.328125 225.691406 -675.359375 224.640625 -687.578125 C 223.597656 -699.796875 217.664062 -708.171875 206.84375 -712.703125 C 196.019531 -717.242188 178.738281 -719.863281 155 -720.5625 L 160.234375 -741.515625 C 174.898438 -740.816406 194.101562 -740.113281 217.84375 -739.40625 C 241.582031 -738.707031 267.066406 -738.359375 294.296875 -738.359375 C 318.734375 -738.359375 342.992188 -738.707031 367.078125 -739.40625 C 391.171875 -740.113281 411.25 -740.816406 427.3125 -741.515625 L 422.078125 -720.5625 C 398.335938 -719.863281 379.832031 -717.242188 366.5625 -712.703125 C 353.300781 -708.171875 342.828125 -699.796875 335.140625 -687.578125 C 327.460938 -675.359375 320.132812 -656.328125 313.15625 -630.484375 L 173.859375 -111.015625 C 166.878906 -85.878906 163.910156 -67.023438 164.953125 -54.453125 C 166.003906 -41.890625 172.113281 -33.6875 183.28125 -29.84375 C 194.457031 -26.007812 211.914062 -24.09375 235.65625 -24.09375 L 312.109375 -24.09375 C 356.085938 -24.09375 391.171875 -30.375 417.359375 -42.9375 C 443.546875 -55.507812 465.539062 -76.109375 483.34375 -104.734375 C 501.144531 -133.359375 518.773438 -171.757812 536.234375 -219.9375 Z M 560.328125 -219.9375 "/></g></g></g></svg>